<svg id="Layer_1" data-name="Layer 1" xmlns="http://www.w3.org/2000/svg" viewBox="0 0 846.683 481.792">
  <path d="M256.586,237.478v5.735h26.469V209.384H256.586v4.749a11.673,11.673,0,1,0,0,23.345ZM249.729,225.8a6.852,6.852,0,0,1,6.857-6.847v13.7A6.855,6.855,0,0,1,249.729,225.8Z" fill="#c1d8ed"></path>
  <path d="M841.353,481.792H10.532c1.753-23.441,26.168-43.327,50.1-49.226,35.006-8.619,72.052,15.08,106.98,6.168,19.844-5.057,35.466-19.795,51.882-32.032,61.932-46.174,131.273-59.821,204.565-35.383,38.306,12.769,73.211,35.1,112.451,44.591,50.743,12.281,103.807,2.1,155.989.419C743.314,414.694,816.13,435.405,841.353,481.792Z" fill="#f3f5fd"></path>
  <g>
    <rect x="554.875" y="323.659" width="6" height="160.001" transform="translate(-84.322 155.167) rotate(-14.735)" fill="#c1d8ed"></rect>
    <rect x="380.821" y="400.659" width="156.63" height="6" transform="translate(-10.788 794.706) rotate(-81.087)" fill="#c1d8ed"></rect>
    <path d="M545.875,177.855s49.565-3.13,49.565,40.174-7.3,103.826-43.826,110.609-90.482,4.737-103.008,2.614c-15.391-2.609-22.1-38.311-1.6-40.7C505.179,283.768,477.005,182.551,545.875,177.855Z" fill="#c1d8ed"></path>
  </g>
  <g>
    <g>
      <path d="M529,156.014s-7.733-4.1-6.006-25.156L507.016,127.9s1.795,18.879-6.288,24.873Z" fill="#bb6751"></path>
      <g opacity="0.15">
        <path d="M504,148.821l13.272-10.154-10.424-.108A28.761,28.761,0,0,1,504,148.821Z"></path>
      </g>
      <path d="M532.057,122.693c-1.106,6.388-4.592,12.438-10.228,14.5-6.689,2.45-11.644,2.616-19.357,2.616-10.525,0-10.177-10.977-10.473-22.038-.3-11.106.586-23.019,4.746-26.889,8.3-7.724,32.673-2.832,35.638,10.088C533.916,107.653,533.109,116.612,532.057,122.693Z" fill="#bb6751"></path>
      <path d="M486.358,97.3s-4.311-.963-3.131-5.261c.783-2.851,4.435-2.218,4.435-2.218s-3.458-.633-3.458-3.652c0-1.9,1.461-5.124,5.871-3.282,5.174,2.161,11.074,1.883,15.561,1.129a51.7,51.7,0,0,1,7.707-1.088l.013,0v0a29.658,29.658,0,0,1,8.814,1.179c8.02,2.4,20.158,9.59,17.578,25.893-2.881,18.194-11.418,25.152-15.174,27.384a1.712,1.712,0,0,1-2.518-.957c-1.065-3.41-2.9-11.99-2.388-29.682-24.652-1.209-31.744-1.576-31.744-1.576s-5.805.218-5.805-4.022S486.358,97.3,486.358,97.3Z" fill="#0f1011"></path>
      <g>
        <circle cx="507.038" cy="116.323" r="1.449" fill="#0f1011"></circle>
        <circle cx="495.607" cy="115.386" r="1.449" fill="#0f1011"></circle>
        <path d="M493.1,112.3a.681.681,0,0,1-.008-1.361l3.839-.048a.7.7,0,0,1,.688.672.68.68,0,0,1-.672.689l-3.839.048Z" fill="#0f1011"></path>
        <path d="M510.166,113.7a.673.673,0,0,1-.16-.019l-3.785-.911a.681.681,0,1,1,.319-1.324l3.784.911a.681.681,0,0,1-.158,1.343Z" fill="#0f1011"></path>
      </g>
      <path d="M514.576,119.869a6.143,6.143,0,0,0,12.244,1,6.041,6.041,0,0,0-5.62-6.625C516.822,114.106,514.853,116.487,514.576,119.869Z" fill="#bb6751"></path>
      <g opacity="0.15">
        <path d="M500.606,124.36a.5.5,0,0,0,.147-.978l-2.947-.905,2.061-4.59a.5.5,0,0,0-.912-.41l-2.293,5.106a.5.5,0,0,0,.309.684l3.488,1.071A.509.509,0,0,0,500.606,124.36Z"></path>
      </g>
      <path d="M506.368,127.735s-5.349.564-9.1-.746c0,0,.03,3.522,4.262,3.869S506.368,127.735,506.368,127.735Z" fill="#fff"></path>
    </g>
    <g>
      <rect x="431.098" y="451.847" width="21" height="24.532" transform="translate(-34.369 35.318) rotate(-4.409)" fill="#bb6751"></rect>
      <path d="M405.465,480.842a4.108,4.108,0,0,1-4.076-4.427h0a4.107,4.107,0,0,1,2.659-3.529L428.49,464.7a3.463,3.463,0,0,1,2.873.32,19.108,19.108,0,0,0,11.467,3.4,17.035,17.035,0,0,0,8.821-3.222,1.546,1.546,0,0,1,2.527,1.2v11.952a2.678,2.678,0,0,1-2.689,2.678Z" fill="#c1d8ed"></path>
      <rect x="372.892" y="453.613" width="24.803" height="21" transform="translate(-136.301 767.083) rotate(-80.452)" fill="#bb6751"></rect>
      <path d="M501.353,264.333v-.065H400.31A18.5,18.5,0,0,0,381.885,281.1L365.777,458.479l36.849,3.346,8.658-95.351,9.215,97.983,36.838-3.465L444.066,319.877h48.2v-.109h27.609a38.087,38.087,0,0,0,38.087-38.087V264.333Z" fill="#262626"></path>
      <path d="M349.162,480.842a4.107,4.107,0,0,1-4.076-4.427h0a4.108,4.108,0,0,1,2.658-3.529l24.443-8.187a3.461,3.461,0,0,1,2.872.32,19.112,19.112,0,0,0,11.468,3.4,17.031,17.031,0,0,0,8.82-3.222,1.547,1.547,0,0,1,2.528,1.2v11.952a2.678,2.678,0,0,1-2.689,2.678Z" fill="#c1d8ed"></path>
    </g>
    <g>
      <g>
        <path d="M584.518,177.989s-.558-12,8.048-11.881c5.431.074,31.05-2.636,31.571-.317,1.288,5.737-22.127,8.537-23.942,14.058Z" fill="#bb6751"></path>
        <path d="M589.555,166.672s11.7-4.592,14.671-4.069c2.632.464-2.528,5.008-2.528,5.008Z" fill="#bb6751"></path>
      </g>
      <g>
        <path d="M404.078,197.253s-3.191-11.58-11.337-8.8c-5.139,1.755-30.336,7.123-30.112,9.49.555,5.853,23.684,1.253,27.121,5.939Z" fill="#bb6751"></path>
        <path d="M395.779,188.056s-12.546-.737-15.21.683c-2.358,1.257,3.957,3.976,3.957,3.976Z" fill="#bb6751"></path>
      </g>
      <path d="M582.651,173.064l-5.589,27.45-17.7-36.334-.092.045a20.162,20.162,0,0,0-4.637-7.108c-4.56-4.56-12.46-7.52-22.08-7.53-.72,5.61-34.79,5.63-35.05.13-1.3.02-2.31.05-2.94.07-11.213.484-16.965,5.122-19.66,12.118L441.013,216l-41.28-28.709-12.45,17.9,50.671,35.239a10.9,10.9,0,0,0,15.463-3.162l21.838-34.853c.548,4.9.988,9.732,1.04,14.294.38,32.47-8.38,38.59-4.06,48.51,4.19,9.63,86.52,13.63,87.62-3.31.7-10.78-8.8-20.19-8.8-41.2,0-5.544,1.351-11.5,3.045-17.543l17.433,35.788a10.9,10.9,0,0,0,20.484-2.6l12-58.94Z" fill="#EE820F"></path>
      <path d="M497.505,149.717c.26,5.5,3.26,13.59,12.48,14.19,12.31.82,21.85-8.71,22.57-14.32h-.04C520.415,149.587,504.575,149.607,497.505,149.717Z" fill="#bb6751"></path>
    </g>
  </g>
  <g>
    <rect x="771.947" y="323.659" width="6" height="160.001" transform="translate(-77.183 210.378) rotate(-14.735)" fill="#c1d8ed"></rect>
    <rect x="597.893" y="400.659" width="156.63" height="6" transform="translate(172.65 1009.157) rotate(-81.087)" fill="#c1d8ed"></rect>
    <path d="M762.947,177.855s49.565-3.13,49.565,40.174-7.3,103.826-43.826,110.609-90.481,4.737-103.008,2.614c-15.391-2.609-22.1-38.311-1.6-40.7C722.251,283.768,694.078,182.551,762.947,177.855Z" fill="#c1d8ed"></path>
  </g>
  <g>
    <g>
      <path d="M774.09,115.386c.153-14.869-5.723-24.083-13.691-29.142-7.862-4.992-32.516-9.337-41.863,8.785-6.1,11.824-3.692,16.051-5.419,34.991s-8.366,20.926-15.1,43.882c-5.28,18.007,24.3,27.567,49.911,26.741s41.85-6.5,43.337-22.788C793.4,154.476,773.789,144.525,774.09,115.386Z" fill="#0f1011"></path>
      <path d="M758.829,156.5s-7.695-4.171-5.775-25.21l-15.949-3.109s1.622,18.894-6.515,24.813Z" fill="#bb6751"></path>
      <g opacity="0.15">
        <path d="M733.9,149.074l13.365-10.032-10.422-.2A28.765,28.765,0,0,1,733.9,149.074Z"></path>
      </g>
      <path d="M762.193,123.2c-1.165,6.378-4.706,12.395-10.36,14.407a40.5,40.5,0,0,1-19.381,2.438c-17.476-1.594-13.651-41.329-5.277-48.977s32.7-2.533,35.543,10.414C764.19,108.182,763.3,117.133,762.193,123.2Z" fill="#bb6751"></path>
      <g>
        <circle cx="737.234" cy="116.605" r="1.449" fill="#0f1011"></circle>
        <circle cx="725.811" cy="115.563" r="1.449" fill="#0f1011"></circle>
        <path d="M723.336,112.452a.681.681,0,0,1,0-1.361l3.839-.013h0a.681.681,0,0,1,0,1.361l-3.839.013Z" fill="#0f1011"></path>
        <path d="M740.391,114.009a.681.681,0,0,1-.166-.021l-3.776-.945a.681.681,0,0,1,.331-1.322l3.776.946a.681.681,0,0,1-.165,1.342Z" fill="#0f1011"></path>
        <path d="M736.459,128.01s-5.354.515-9.091-.829c0,0,0,3.523,4.227,3.908S736.459,128.01,736.459,128.01Z" fill="#fff"></path>
      </g>
      <path d="M750.577,106.545A125.385,125.385,0,0,0,755,151s12.4-20.9,14.466-38.386C771.4,96.22,759.393,86.421,751.241,84.52c-30.981-7.227-33.132,15.371-33.132,15.371,2,7.708,35.823,12.491,35.823,12.491" fill="#0f1011"></path>
      <path d="M744.493,122.917a6.142,6.142,0,1,0,12.234,1.116,6.04,6.04,0,0,0-5.559-6.675C746.791,117.175,744.8,119.538,744.493,122.917Z" fill="#bb6751"></path>
      <g opacity="0.15">
        <path d="M730.732,124.582a.5.5,0,0,0,.152-.976l-2.939-.932,2.1-4.572a.5.5,0,0,0-.908-.418l-2.34,5.086a.5.5,0,0,0,.3.686l3.478,1.1A.5.5,0,0,0,730.732,124.582Z"></path>
      </g>
    </g>
    <path d="M619.806,216.327s-24.791-5.884-35.332,4.512a1.875,1.875,0,0,0,1.382,3.206c5.918-.212,13.975.267,18.867,2.468-1.712.8-3.453,1.824-3.064,2.5,1.083,1.877,18.157.95,18.157.95Z" fill="#bb6751"></path>
    <rect x="659.975" y="452.217" width="21" height="24.532" transform="translate(-33.729 52.928) rotate(-4.41)" fill="#bb6751"></rect>
    <path d="M634.343,481.212a4.107,4.107,0,0,1-4.089-4.125c0-.1,0-.2.013-.3h0a4.109,4.109,0,0,1,2.658-3.529l24.443-8.187a3.463,3.463,0,0,1,2.872.32,19.1,19.1,0,0,0,11.468,3.4,17.023,17.023,0,0,0,8.82-3.223,1.548,1.548,0,0,1,2.528,1.2v11.952a2.678,2.678,0,0,1-2.678,2.678h-.011Z" fill="#c1d8ed"></path>
    <rect x="581.77" y="453.983" width="24.803" height="21" transform="translate(37.564 973.375) rotate(-80.452)" fill="#bb6751"></rect>
    <path d="M575.174,461.868l36.108-183.385a18.5,18.5,0,0,1,17.9-13.845H730.23v.065h56.609v17.348a38.087,38.087,0,0,1-38.086,38.088h-27.61v.109h-48.2l13.272,141.114-36.838,3.464L637.544,333.371l-26.56,133.805Z" fill="#262626"></path>
    <path d="M666.846,242.75H703.17c-2.143,11.537-4.866,16.385-2.056,22.837,4.19,9.63,86.52,13.63,87.62-3.31.7-10.78-8.8-20.2-8.8-41.2s19.33-47.84,3.58-63.59c-4.56-4.56-12.46-7.52-22.08-7.53-.72,5.61-34.79,5.63-35.05.13-1.3.02-2.31.05-2.94.07-11.74.506-17.494,5.566-20.02,13.119l-26.7,47.791-58.68,3.779,1.305,18.956,47.5-1.176Zm38.327-25.673c.015,1.339.01,2.617,0,3.868h-8.986l8.3-14.86c.375,3.762.648,7.459.689,10.992Z" fill="#EE820F"></path>
    <path d="M726.383,150.087c.26,5.5,3.26,13.59,12.48,14.19,12.31.82,21.85-8.71,22.57-14.32h-.04C749.293,149.957,733.453,149.977,726.383,150.087Z" fill="#bb6751"></path>
    <path d="M558.039,481.212a4.106,4.106,0,0,1-4.088-4.127q0-.15.012-.3h0a4.111,4.111,0,0,1,2.659-3.529l24.442-8.187a3.466,3.466,0,0,1,2.873.32,19.1,19.1,0,0,0,11.467,3.4,17.026,17.026,0,0,0,8.821-3.223,1.547,1.547,0,0,1,2.527,1.2v11.952a2.678,2.678,0,0,1-2.678,2.678h-.011Z" fill="#c1d8ed"></path>
    <path d="M666.853,228.443s-24.791-5.884-35.332,4.512a1.875,1.875,0,0,0,1.382,3.206c5.917-.213,13.975.267,18.867,2.468-1.712.8-3.453,1.824-3.064,2.5,1.083,1.876,18.157.95,18.157.95Z" fill="#bb6751"></path>
  </g>
  <g>
    <rect x="587.998" y="10.194" width="11.064" height="37.549" transform="translate(65.034 300.646) rotate(-30)" fill="#dee8f5"></rect>
    <rect x="570.706" y="10.194" width="11.064" height="37.549" fill="#dee8f5"></rect>
    <rect x="635.146" width="11.064" height="47.743" fill="#dee8f5"></rect>
    <rect x="623.767" y="10.194" width="11.064" height="37.549" fill="#EEC9A4"></rect>
    <rect x="646.211" y="5.368" width="11.064" height="42.375" fill="#EEC9A4"></rect>
    <rect x="605.923" y="4.046" width="17.67" height="43.697" fill="#c1d8ed"></rect>
    <g>
      <g>
        <path d="M675,35.266s-.054-18.676,9.327-22.577-4.664,22.577-4.664,22.577Z" fill="#8ddbe0"></path>
        <path d="M679.667,35.266S684.565.3,674.556.3,675,35.266,675,35.266" fill="#8ddbe0"></path>
        <path d="M676.666,36.806s-4.7-31.161-13.076-28.661,9.782,29.644,9.782,29.644Z" fill="#8ddbe0"></path>
      </g>
      <rect x="664.053" y="25.894" width="21.849" height="21.849" fill="#dee8f5"></rect>
    </g>
    <rect x="565.174" y="47.743" width="129.629" height="4.855" fill="#c1d8ed"></rect>
    <rect x="565.174" y="47.743" width="100.842" height="4.855" fill="#dee8f5"></rect>
  </g>
  <g>
    <rect x="13.608" y="400.659" width="160.001" height="6" transform="translate(-320.584 391.502) rotate(-75.263)" fill="#c1d8ed"></rect>
    <rect x="189.348" y="325.344" width="6" height="156.63" transform="translate(-60.202 34.665) rotate(-8.911)" fill="#c1d8ed"></rect>
    <path d="M105.609,177.855s-49.566-3.13-49.566,40.174S63.348,321.855,99.87,328.638s90.481,4.737,103.008,2.614c15.391-2.609,22.1-38.311,1.6-40.7C146.3,283.768,174.478,182.551,105.609,177.855Z" fill="#c1d8ed"></path>
  </g>
  <g>
    <g>
      <path d="M122.189,155.762s7.733-4.1,6.006-25.156l15.977-2.963s-1.795,18.879,6.287,24.872Z" fill="#bb6751"></path>
      <g opacity="0.15">
        <path d="M147.186,148.569l-13.273-10.154,10.424-.108A28.742,28.742,0,0,0,147.186,148.569Z"></path>
      </g>
      <path d="M119.131,122.441c1.106,6.388,4.592,12.438,10.227,14.5a40.5,40.5,0,0,0,19.358,2.616c17.489-1.434,14.03-41.2,5.726-48.927s-32.673-2.833-35.637,10.087C117.272,107.4,118.078,116.36,119.131,122.441Z" fill="#bb6751"></path>
      <path d="M160.211,92a5.557,5.557,0,0,0-2.12-1.959c-7.767-4.224-22.16-5.685-29.073-3.617-8.02,2.4-18.076,9.123-15.5,25.426.109.686.226,1.347.347,2a14,14,0,1,0,9.9,20.562,24.707,24.707,0,0,0,3.838,2.723c.957.568,1.189.105,1.521-.957,1.16-3.711,2.3-18.388,1.39-29.045l18.846-.652,3.284-9.342,2.691,9.342h6.419C162.615,101.42,163.5,95.682,160.211,92Z" fill="#0f1011"></path>
      <g>
        <circle cx="144.149" cy="116.071" r="1.449" fill="#0f1011"></circle>
        <circle cx="155.581" cy="115.133" r="1.449" fill="#0f1011"></circle>
        <path d="M158.091,112.045a.681.681,0,0,0,.008-1.361l-3.838-.048a.7.7,0,0,0-.689.672.68.68,0,0,0,.672.689l3.839.048Z" fill="#0f1011"></path>
        <path d="M141.022,113.445a.671.671,0,0,0,.159-.019l3.785-.91a.681.681,0,0,0-.318-1.324l-3.785.91a.681.681,0,0,0,.159,1.343Z" fill="#0f1011"></path>
      </g>
      <path d="M136.611,119.616a6.143,6.143,0,1,1-12.244,1,6.042,6.042,0,0,1,5.62-6.624C134.365,113.853,136.334,116.235,136.611,119.616Z" fill="#bb6751"></path>
      <g opacity="0.15">
        <path d="M150.581,124.108a.5.5,0,0,1-.147-.978l2.947-.905-2.061-4.591a.5.5,0,1,1,.912-.409l2.294,5.107a.5.5,0,0,1-.31.683l-3.488,1.071A.5.5,0,0,1,150.581,124.108Z"></path>
      </g>
      <path d="M144.82,127.482s5.348.564,9.1-.746c0,0-.029,3.523-4.262,3.87S144.82,127.482,144.82,127.482Z" fill="#fff"></path>
    </g>
    <g>
      <rect x="197.62" y="453.613" width="24.532" height="21" transform="translate(-268.987 637.701) rotate(-85.591)" fill="#bb6751"></rect>
      <path d="M246.018,480.842a4.107,4.107,0,0,0,4.076-4.427h0a4.108,4.108,0,0,0-2.658-3.529L222.993,464.7a3.461,3.461,0,0,0-2.872.32,19.112,19.112,0,0,1-11.468,3.4,17.031,17.031,0,0,1-8.82-3.222,1.547,1.547,0,0,0-2.528,1.2v11.952a2.678,2.678,0,0,0,2.689,2.678Z" fill="#c1d8ed"></path>
      <rect x="285.69" y="451.711" width="21" height="24.803" transform="translate(-72.882 55.561) rotate(-9.548)" fill="#bb6751"></rect>
      <path d="M315.187,455.5,269.079,278.114a18.5,18.5,0,0,0-17.9-13.846H150.131v.065H93.522v17.348a38.087,38.087,0,0,0,38.087,38.087h27.609v.109h48.2L194.146,460.992l36.838,3.465L243.817,328l35.56,136.8Z" fill="#262626"></path>
      <path d="M332.322,480.842a4.108,4.108,0,0,0,4.076-4.427h0a4.109,4.109,0,0,0-2.659-3.529L309.3,464.7a3.463,3.463,0,0,0-2.873.32,19.108,19.108,0,0,1-11.467,3.4,17.035,17.035,0,0,1-8.821-3.222,1.546,1.546,0,0,0-2.527,1.2v11.952a2.678,2.678,0,0,0,2.689,2.678Z" fill="#c1d8ed"></path>
    </g>
    <g>
      <g>
        <path d="M238.2,179.553s.15-12.011,8.735-11.386c5.416.394,31.151-.8,31.534,1.544.948,5.8-22.592,7.218-24.728,12.622Z" fill="#bb6751"></path>
        <path d="M243.892,168.552s11.949-3.894,14.886-3.2c2.6.618-2.82,4.85-2.82,4.85Z" fill="#bb6751"></path>
      </g>
      <path d="M201.6,240.3a10.916,10.916,0,0,1-9.518-5.585l-36.115-64.646L175,159.438,203.637,210.7l34.138-38.407,18.374,10.332-46.4,54.022A10.9,10.9,0,0,1,201.6,240.3Z" fill="#EE820F"></path>
      <g>
        <path d="M213.038,226.391c2.98,0,12.943-1.573,13.655.958.426,1.517-7,3.309-7,3.309" fill="#bb6751"></path>
        <path d="M211.474,238.339s20.114,8.264,31.669-1.162a1.888,1.888,0,0,0-1.081-3.346c-7.792-.458-23.8-2.029-21.925-7.166H207.573" fill="#bb6751"></path>
      </g>
      <path d="M213.516,220.575H175.191c-.013-1.251-.018-2.529,0-3.868.32-27.73,14.9-65.49-18.27-66.92-.63-.02-1.64-.05-2.94-.07-.26,5.5-34.33,5.48-35.05-.13-9.62.01-17.52,2.97-22.08,7.53-15.75,15.75,3.58,42.59,3.58,63.59s-9.5,30.42-8.8,41.2c1.1,16.94,83.43,12.94,87.62,3.31,2.81-6.452.087-11.3-2.056-22.837h36.324Z" fill="#EE820F"></path>
      <path d="M153.978,149.717c-.26,5.5-3.26,13.59-12.48,14.19-12.31.82-21.85-8.71-22.57-14.32h.04C131.068,149.587,146.908,149.607,153.978,149.717Z" fill="#bb6751"></path>
    </g>
  </g>
  <g>
    <rect x="25.217" y="252.072" width="9.391" height="228.957" fill="#dee8f5"></rect>
    <rect x="810.916" y="252.072" width="9.391" height="228.957" fill="#dee8f5"></rect>
    <rect y="242.616" width="846.683" height="12.913" fill="#dee8f5"></rect>
  </g>
  <g>
    <rect x="42.127" y="192.068" width="8.65" height="45.869" transform="translate(50.714 -4.92) rotate(13.302)" fill="#f0f6ff"></rect>
    <g>
      <rect x="37.161" y="188.324" width="4.752" height="39.841" transform="translate(-37.121 10.627) rotate(-10.452)" fill="#c1d8ed"></rect>
      <rect x="33.958" y="188.615" width="4.752" height="4.399" transform="translate(-35.032 10.157) rotate(-10.775)" fill="#dee8f5"></rect>
    </g>
    <rect x="25.793" y="216.519" width="41.318" height="2.789" transform="translate(-173.323 181.262) rotate(-68.498)" fill="#EEC9A4"></rect>
    <rect x="33.215" y="215.002" width="22.829" height="29.176" fill="#dee8f5"></rect>
  </g>
  <g>
    <rect x="312.796" y="231.407" width="52.564" height="11.902" fill="#c1d8ed"></rect>
    <g>
      <rect x="291.837" y="231.407" width="55.586" height="11.902" fill="#dee8f5"></rect>
      <rect x="340.187" y="231.407" width="2.698" height="11.902" fill="#c1d8ed" opacity="0.62"></rect>
      <rect x="334.791" y="231.407" width="2.698" height="11.902" fill="#c1d8ed" opacity="0.62"></rect>
      <circle cx="298.21" cy="237.358" r="3.838" fill="#f3f5fd"></circle>
    </g>
    <g>
      <rect x="317.083" y="219.518" width="52.564" height="11.902" transform="translate(686.73 450.938) rotate(-180)" fill="#c1d8ed"></rect>
      <g>
        <rect x="296.124" y="219.518" width="55.586" height="11.902" transform="translate(647.834 450.938) rotate(-180)" fill="#f3f5fd"></rect>
        <rect x="300.661" y="219.518" width="2.698" height="11.902" transform="translate(604.021 450.938) rotate(-180)" fill="#dee8f5"></rect>
        <rect x="306.057" y="219.518" width="2.698" height="11.902" transform="translate(614.813 450.938) rotate(-180)" fill="#dee8f5"></rect>
        <circle cx="345.337" cy="225.469" r="3.838" fill="#dee8f5"></circle>
      </g>
      <rect x="312.914" y="222.552" width="24.538" height="5.835" fill="#dee8f5"></rect>
    </g>
  </g>
  <g>
    <g>
      <path d="M628.887,185l12.142,50.972a5.4,5.4,0,0,1-4,6.5,5.333,5.333,0,0,1-1.246.147H564.194a5.4,5.4,0,0,1-5.206-3.969L545,187.676a5.4,5.4,0,0,1,5.206-6.828h73.432A5.4,5.4,0,0,1,628.887,185Z" fill="#9ebcea"></path>
      <path d="M666.513,242.616H579.994a3.172,3.172,0,0,1-3.172-3.172h0a3.172,3.172,0,0,1,3.172-3.172h86.519a3.172,3.172,0,0,1,3.172,3.172h0A3.172,3.172,0,0,1,666.513,242.616Z" fill="#9ebcea"></path>
    </g>
    <circle cx="590.082" cy="211.229" r="8.466" fill="#fff"></circle>
  </g>
  <path d="M423.151,225.8a11.675,11.675,0,0,0-11.677-11.668v-4.749H385.005v33.829h26.469v-5.735A11.676,11.676,0,0,0,423.151,225.8Zm-11.677,6.857v-13.7a6.852,6.852,0,1,1,0,13.7Z" fill="#c1d8ed"></path>
  <g>
    <circle cx="235.488" cy="35.266" r="26.579" fill="#c1d8ed"></circle>
    <circle cx="240.905" cy="35.266" r="26.579" fill="#dee8f5"></circle>
    <circle cx="240.905" cy="35.266" r="22.663" fill="#f3f5fd"></circle>
    <path d="M240.906,37.358a1.088,1.088,0,0,1-.531-.139L229.44,31.072a1.083,1.083,0,1,1,1.061-1.889l9.321,5.239V19.529a1.084,1.084,0,0,1,2.167,0V36.274a1.085,1.085,0,0,1-1.083,1.084Z" fill="#dee8f5"></path>
  </g>
</svg>