<svg id="Layer_1" data-name="Layer 1" xmlns="http://www.w3.org/2000/svg" viewBox="0 0 938.316 624.628">
  <path d="M38.183,623.9A37.449,37.449,0,0,1,.842,589.948C-4,536.891,7.7,435.9,153.426,392.329c157.56-47.107,114-240.624,239.849-240.624S519.784,248.133,557.3,257.939,720.6,238.624,748.7,324.584c51.935,158.9,121.647,82.3,175.746,204.66A231.783,231.783,0,0,1,936.9,566.126c7.391,29.351-15.007,57.777-45.273,57.777Z" fill="#f3f5fd"></path>
  <g>
    <path d="M189.826,305.569l-11.117,16.088a14.3,14.3,0,0,1-23.534-16.264l11.118-16.088Z" fill="#d7e8f4"></path>
    <path d="M166.293,289.305l11.117-16.087a14.3,14.3,0,1,1,23.534,16.263l-11.118,16.088Z" fill="#EEC9A4"></path>
  </g>
  <g>
    <path d="M138.7,375.8a26.667,26.667,0,0,1-31.691,20.442l11.249-52.133A26.667,26.667,0,0,1,138.7,375.8Z" fill="#d7e8f4"></path>
    <path d="M118.258,344.111l-11.249,52.133a26.666,26.666,0,1,1,11.249-52.133Z" fill="#EEC9A4"></path>
  </g>
  <g>
    <rect x="63.405" y="415.367" width="179.484" height="237.587" rx="13.597" transform="translate(-381.014 687.308) rotate(-90)" fill="#262626"></rect>
    <rect x="150.626" y="443.673" width="5.041" height="180.678" rx="2.52" transform="translate(-380.865 687.158) rotate(-90)" fill="#abcbff"></rect>
    <rect x="210.653" y="570.625" width="48.552" height="17.113" rx="8.556" transform="translate(-344.252 814.11) rotate(-90)" fill="#fafafa"></rect>
    <rect x="193.66" y="554.905" width="17.113" height="48.552" rx="8.556" fill="#fafafa"></rect>
    <rect x="160.947" y="554.905" width="17.113" height="48.552" rx="8.556" fill="#fafafa"></rect>
    <rect x="128.234" y="554.905" width="17.113" height="48.552" rx="8.556" fill="#fafafa"></rect>
    <rect x="95.521" y="554.905" width="17.113" height="48.552" rx="8.556" fill="#fafafa"></rect>
    <rect x="47.088" y="570.625" width="48.552" height="17.113" rx="8.556" transform="translate(-507.817 650.545) rotate(-90)" fill="#fafafa"></rect>
    <rect x="210.653" y="480.584" width="48.552" height="17.113" rx="8.556" transform="translate(-254.211 724.07) rotate(-90)" fill="#fafafa"></rect>
    <rect x="193.66" y="464.865" width="17.113" height="48.552" rx="8.556" fill="#fafafa"></rect>
    <rect x="160.947" y="464.865" width="17.113" height="48.552" rx="8.556" fill="#fafafa"></rect>
    <rect x="128.234" y="464.865" width="17.113" height="48.552" rx="8.556" fill="#fafafa"></rect>
    <rect x="95.521" y="464.865" width="17.113" height="48.552" rx="8.556" fill="#fafafa"></rect>
    <rect x="47.088" y="480.584" width="48.552" height="17.113" rx="8.556" transform="translate(-417.777 560.505) rotate(-90)" fill="#fafafa"></rect>
  </g>
  <g>
    <path d="M363.321,20.785v16.1H289.483A29.509,29.509,0,0,0,259.976,66.39V594.4A29.507,29.507,0,0,0,289.483,623.9H683.672A29.5,29.5,0,0,0,713.178,594.4V66.39a29.506,29.506,0,0,0-29.506-29.507H609.834v-16.1A20.784,20.784,0,0,0,589.051,0H384.1A20.783,20.783,0,0,0,363.321,20.785Z" fill="#262626"></path>
    <rect x="217.668" y="131.083" width="537.819" height="398.62" rx="13.281" transform="translate(156.184 816.97) rotate(-90)" fill="#fafafa"></rect>
    <rect x="453.843" y="-35.335" width="65.468" height="193.638" rx="9.03" transform="translate(425.093 548.061) rotate(-90)" fill="#EEC9A4"></rect>
  </g>
  <g>
    <path d="M376.854,334.75H325.436A19.758,19.758,0,0,1,305.7,315.015V263.6a19.757,19.757,0,0,1,19.735-19.736h51.418A19.757,19.757,0,0,1,396.589,263.6v51.418A19.758,19.758,0,0,1,376.854,334.75Z" fill="none" stroke="#dee8f5" stroke-miterlimit="10" stroke-width="6"></path>
    <path d="M376.854,450.249H325.436A19.758,19.758,0,0,1,305.7,430.514V379.1a19.758,19.758,0,0,1,19.735-19.736h51.418A19.758,19.758,0,0,1,396.589,379.1v51.418A19.758,19.758,0,0,1,376.854,450.249Z" fill="none" stroke="#dee8f5" stroke-miterlimit="10" stroke-width="6"></path>
    <path d="M376.854,565.748H325.436A19.758,19.758,0,0,1,305.7,546.013V494.6a19.758,19.758,0,0,1,19.735-19.736h51.418A19.758,19.758,0,0,1,396.589,494.6v51.418A19.758,19.758,0,0,1,376.854,565.748Z" fill="none" stroke="#dee8f5" stroke-miterlimit="10" stroke-width="6"></path>
    <path d="M340.423,309.148a4.492,4.492,0,0,1-3.389-1.537l-15.26-17.446a4.5,4.5,0,0,1,6.774-5.926l12.363,14.135,33.332-27.864a4.5,4.5,0,1,1,5.772,6.905L343.308,308.1A4.485,4.485,0,0,1,340.423,309.148Z" fill="#fd5d76"></path>
    <path d="M340.424,424.648a4.493,4.493,0,0,1-3.39-1.538l-15.26-17.446a4.5,4.5,0,0,1,6.774-5.926l12.363,14.135,33.332-27.864a4.5,4.5,0,1,1,5.772,6.9L343.308,423.6A4.486,4.486,0,0,1,340.424,424.648Z" fill="#fd5d76"></path>
    <path d="M340.424,540.147a4.493,4.493,0,0,1-3.39-1.538l-15.26-17.446a4.5,4.5,0,0,1,6.774-5.926l12.363,14.135,33.332-27.864a4.5,4.5,0,1,1,5.772,6.905L343.308,539.1A4.486,4.486,0,0,1,340.424,540.147Z" fill="#fd5d76"></path>
    <g opacity="0.62">
      <rect x="530.945" y="170.778" width="11.987" height="237.055" rx="5.994" transform="translate(247.632 826.244) rotate(-90)" fill="#dee8f5"></rect>
      <rect x="530.945" y="134.036" width="11.987" height="237.055" rx="5.994" transform="translate(284.374 789.502) rotate(-90)" fill="#dee8f5"></rect>
      <rect x="505.945" y="232.52" width="11.987" height="187.055" rx="5.994" transform="translate(185.891 837.985) rotate(-90)" fill="#dee8f5"></rect>
    </g>
    <g opacity="0.62">
      <rect x="530.945" y="286.277" width="11.987" height="237.055" rx="5.994" transform="translate(132.133 941.743) rotate(-90)" fill="#dee8f5"></rect>
      <rect x="530.945" y="249.535" width="11.987" height="237.055" rx="5.994" transform="translate(168.875 905.001) rotate(-90)" fill="#dee8f5"></rect>
      <rect x="505.945" y="348.019" width="11.987" height="187.055" rx="5.994" transform="translate(70.392 953.484) rotate(-90)" fill="#dee8f5"></rect>
    </g>
    <g opacity="0.62">
      <rect x="530.945" y="401.776" width="11.987" height="237.055" rx="5.994" transform="translate(16.634 1057.242) rotate(-90)" fill="#dee8f5"></rect>
      <rect x="530.945" y="365.034" width="11.987" height="237.055" rx="5.994" transform="translate(53.376 1020.5) rotate(-90)" fill="#dee8f5"></rect>
      <rect x="505.945" y="463.518" width="11.987" height="187.055" rx="5.994" transform="translate(-45.107 1068.983) rotate(-90)" fill="#dee8f5"></rect>
    </g>
  </g>
  <g>
    <path d="M320.661,362.1v23.56H187.967V362.1a10.922,10.922,0,0,1,10.922-10.922H309.738A10.922,10.922,0,0,1,320.661,362.1Z" fill="#262626"></path>
    <path d="M320.661,385.663V611.484a12.42,12.42,0,0,1-12.42,12.419H200.386a12.419,12.419,0,0,1-12.419-12.419V385.663Z" fill="#EEC9A4"></path>
    <rect x="210.14" y="443.656" width="88.348" height="128.524" fill="#fafafa"></rect>
    <path d="M281.731,484.145H226.9a2.678,2.678,0,0,1,0-5.355h54.835a2.678,2.678,0,1,1,0,5.355Z" fill="#9ebcea"></path>
    <path d="M281.731,501.779H226.9a2.678,2.678,0,0,1,0-5.355h54.835a2.678,2.678,0,1,1,0,5.355Z" fill="#9ebcea"></path>
    <path d="M281.731,519.412H226.9a2.678,2.678,0,0,1,0-5.356h54.835a2.678,2.678,0,0,1,0,5.356Z" fill="#9ebcea"></path>
    <path d="M270.374,537.046H238.253a2.678,2.678,0,0,1,0-5.356h32.121a2.678,2.678,0,0,1,0,5.356Z" fill="#9ebcea"></path>
  </g>
  <g>
    <circle cx="339.942" cy="135.039" r="26.64" fill="none" stroke="#d7e8f4" stroke-miterlimit="10" stroke-width="6"></circle>
    <polygon points="359.329 131.407 359.329 138.67 343.573 138.67 343.573 154.426 336.31 154.426 336.31 138.67 320.554 138.67 320.554 131.407 336.31 131.407 336.31 115.651 343.573 115.651 343.573 131.407 359.329 131.407" fill="#fd5d76"></polygon>
  </g>
  <g>
    <path d="M683.335,351.181h188.5a13.428,13.428,0,0,1,13.428,13.428v82.734H669.907V364.609A13.428,13.428,0,0,1,683.335,351.181Z" fill="#c1d8ed"></path>
    <rect x="692.271" y="370.177" width="170.631" height="51.435" rx="4.058" fill="#fff"></rect>
    <path d="M669.907,438.814H885.265V611.2a13.428,13.428,0,0,1-13.428,13.428h-188.5A13.428,13.428,0,0,1,669.907,611.2Z" fill="#d7e8f4"></path>
    <g id="buttons">
      <rect x="779.738" y="453.474" width="37.57" height="25.494" rx="4.564" fill="#fff"></rect>
      <rect x="779.738" y="485.066" width="37.57" height="25.494" rx="4.564" fill="#fff"></rect>
      <rect x="779.738" y="516.659" width="37.57" height="25.494" rx="4.564" fill="#fff"></rect>
      <rect x="779.738" y="548.251" width="37.57" height="25.494" rx="4.564" fill="#fff"></rect>
      <rect x="779.738" y="579.844" width="37.57" height="25.494" rx="4.564" fill="#fff"></rect>
      <rect x="735.589" y="453.474" width="37.57" height="25.494" rx="4.564" fill="#8ddbe0"></rect>
      <rect x="735.589" y="485.066" width="37.57" height="25.494" rx="4.564" fill="#fff"></rect>
      <rect x="735.589" y="516.659" width="37.57" height="25.494" rx="4.564" fill="#fff"></rect>
      <rect x="735.589" y="548.251" width="37.57" height="25.494" rx="4.564" fill="#fff"></rect>
      <rect x="735.589" y="579.844" width="37.57" height="25.494" rx="4.564" fill="#fff"></rect>
      <rect x="691.44" y="453.474" width="37.57" height="25.494" rx="4.564" fill="#fd5d76"></rect>
      <rect x="691.44" y="485.066" width="37.57" height="25.494" rx="4.564" fill="#fff"></rect>
      <rect x="691.44" y="516.659" width="37.57" height="25.494" rx="4.564" fill="#fff"></rect>
      <rect x="691.44" y="548.251" width="37.57" height="25.494" rx="4.564" fill="#fff"></rect>
      <rect x="691.44" y="579.844" width="37.57" height="25.494" rx="4.564" fill="#fff"></rect>
      <rect x="823.887" y="453.474" width="37.57" height="25.494" rx="4.564" fill="#fff"></rect>
      <rect x="823.887" y="485.066" width="37.57" height="25.494" rx="4.564" fill="#fff"></rect>
      <rect x="823.887" y="516.659" width="37.57" height="25.494" rx="4.564" fill="#fff"></rect>
      <rect x="823.887" y="548.251" width="37.57" height="57.087" rx="4.564" fill="#EEC9A4"></rect>
    </g>
  </g>
  <g>
    <path d="M653.061,122.414a71.006,71.006,0,0,1-42.839-14.29,71,71,0,0,1-42.838,14.29c-1.269,0-2.538-.031-3.791-.1v26.868c.016,24.151,9.628,46.4,30.728,58.148l15.9,8.826,15.9-8.826c21.1-11.745,30.713-34,30.728-58.148V122.313C655.6,122.383,654.329,122.414,653.061,122.414Z" fill="#fff"></path>
    <g>
      <path d="M653.061,120.079a68.375,68.375,0,0,1-41.435-13.82l-1.4-1.057-1.4,1.057a68.371,68.371,0,0,1-41.435,13.82c-1.276,0-2.507-.033-3.659-.1l-2.466-.138v29.338c.017,26.966,11.655,48.9,31.93,60.188l17.034,9.456,17.037-9.457c20.272-11.284,31.91-33.221,31.927-60.188V119.844l-2.465.138C655.568,120.046,654.337,120.079,653.061,120.079Zm1.455,29.1c-.016,25.222-10.779,45.673-29.526,56.108l-14.768,8.2-14.765-8.2c-18.75-10.437-29.512-30.888-29.529-56.108V124.735c.478.009.964.014,1.455.014a72.982,72.982,0,0,0,42.839-13.728,72.986,72.986,0,0,0,42.839,13.728q.738,0,1.455-.014Z" fill="#EEC9A4"></path>
      <path d="M610.222,220.5l-17.746-9.851c-20.755-11.551-32.668-33.957-32.686-61.47V118.292l4.016.224c1.124.063,2.327.1,3.577.1a66.914,66.914,0,0,0,40.553-13.526l2.286-1.721,2.287,1.721a66.911,66.911,0,0,0,40.552,13.526c1.251,0,2.454-.033,3.577-.1l4.016-.224v30.889c-.018,27.515-11.93,49.92-32.682,61.47Zm-47.5-99.108v27.786c.016,26.417,11.38,47.887,31.176,58.906l16.32,9.059,16.324-9.061c19.793-11.017,31.155-32.487,31.173-58.906V121.4l-.916.051c-1.177.066-2.437.1-3.742.1a69.826,69.826,0,0,1-42.317-14.116l-.522-.392-.522.392a69.821,69.821,0,0,1-42.317,14.116c-1.305,0-2.564-.034-3.742-.1Zm47.5,93.767-15.477-8.591c-19.229-10.7-30.267-31.621-30.285-57.39v-25.94l1.494.026q.705.013,1.429.013a71.622,71.622,0,0,0,41.984-13.452l.855-.614.856.614a71.619,71.619,0,0,0,41.983,13.452q.723,0,1.429-.013l1.494-.026V149.18c-.017,25.77-11.054,46.688-30.28,57.39ZM567.4,126.216v22.965c.017,24.672,10.5,44.655,28.776,54.825l14.051,7.8,14.056-7.8c18.267-10.168,28.754-30.152,28.771-54.826V126.216a74.529,74.529,0,0,1-42.827-13.4A74.524,74.524,0,0,1,567.4,126.216Z" fill="#EEC9A4"></path>
    </g>
    <path d="M600.692,183.751a3.853,3.853,0,0,1-2.735-1.134L583.037,167.7a3.869,3.869,0,0,1,5.471-5.471l12.184,12.185,31.244-32.751a3.869,3.869,0,0,1,5.471,5.471l-33.98,35.485A3.853,3.853,0,0,1,600.692,183.751Z" fill="#262626"></path>
  </g>
  <rect x="311.455" y="180.896" width="170.64" height="9.416" rx="4.708" fill="#dee8f5"></rect>
  <rect x="311.455" y="207.043" width="170.64" height="9.416" rx="4.708" fill="#dee8f5"></rect>
  <g>
    <path d="M127.63,233.411l6.278,12.814a10.437,10.437,0,0,1-18.745,9.184L108.885,242.6Z" fill="#d7e8f4"></path>
    <path d="M108.885,242.6l-6.278-12.814a10.437,10.437,0,1,1,18.745-9.184l6.278,12.814Z" fill="#262626"></path>
  </g>
</svg>