<svg id="Layer_1" data-name="Layer 1" xmlns="http://www.w3.org/2000/svg" viewBox="0 0 655.443 496.288">
  <g>
    <path d="M197.694,52.256c0-24.645-12.672-44.362-37.028-44.362-21.977,0-35.9,20.007-35.9,44.362" fill="#c1d8ed"></path>
    <path d="M160.667,7.9c24.333,0,36.987,19.683,37.027,44.292a4.385,4.385,0,0,1,.028.536V288.382a44.361,44.361,0,1,0,88.721,0h141.29V57.187C427.733,30.8,412.5,9.052,386.114,7.9Z" fill="#d7e8f4"></path>
    <path d="M242.084,332.741H427.732a44.361,44.361,0,0,0,44.362-44.361H286.445A44.177,44.177,0,0,1,242.084,332.741Z" fill="#c1d8ed"></path>
    <rect x="257.781" y="87.685" width="110.784" height="15.551" rx="7.776" transform="translate(626.346 190.922) rotate(-180)" fill="#fafbfc"></rect>
    <rect x="235.038" y="141.101" width="156.27" height="6.627" rx="3.313" fill="#fafbfc"></rect>
    <rect x="235.038" y="125.188" width="156.27" height="6.627" rx="3.313" fill="#fafbfc"></rect>
    <rect x="235.038" y="157.015" width="156.27" height="6.627" rx="3.313" fill="#fafbfc"></rect>
    <rect x="235.038" y="172.929" width="156.27" height="6.627" rx="3.313" fill="#fafbfc"></rect>
    <rect x="235.038" y="188.843" width="156.27" height="6.627" rx="3.313" fill="#fafbfc"></rect>
    <rect x="235.038" y="220.67" width="156.27" height="6.627" rx="3.313" fill="#fafbfc"></rect>
    <rect x="235.038" y="204.757" width="156.27" height="6.627" rx="3.313" fill="#fafbfc"></rect>
    <rect x="280.04" y="236.584" width="66.266" height="6.627" rx="3.313" fill="#fafbfc"></rect>
  </g>
  <g>
    <g>
      <path d="M106.091,39.356c.3,3.669-3.524,7.085-4.154,10.543-.652,3.578,1.686,8.122.16,11.332-1.547,3.256-6.563,4.312-8.882,7.041s-2.554,7.849-5.518,9.9c-2.922,2.023-7.784.447-11.209,1.667-3.311,1.179-6.066,5.5-9.736,5.8s-7.085-3.525-10.543-4.155c-3.578-.652-8.122,1.686-11.332.16-3.256-1.547-4.312-6.563-7.041-8.882s-7.849-2.554-9.9-5.518c-2.023-2.922-.447-7.784-1.667-11.209-1.179-3.311-5.5-6.066-5.8-9.736s3.525-7.085,4.155-10.543c.652-3.578-1.686-8.122-.16-11.332,1.547-3.256,6.563-4.312,8.882-7.041s2.554-7.849,5.518-9.9c2.922-2.023,7.784-.447,11.209-1.667,3.311-1.179,6.066-5.5,9.736-5.8s7.085,3.525,10.543,4.155c3.578.652,8.122-1.686,11.332-.16C84.94,5.558,86,10.574,88.725,12.893s7.849,2.554,9.9,5.518c2.023,2.922.447,7.784,1.667,11.209C101.471,32.931,105.794,35.686,106.091,39.356Z" fill="#0f1011"></path>
      <path d="M49.989,79.236c1.98-3.35,4.1-9.84,3.12-21.89l15.98-2.95s-1.8,18.8,6.21,24.84Z" fill="#bb6751"></path>
      <path d="M72.083,75.328,58.82,65.163l10.424-.1A28.741,28.741,0,0,0,72.083,75.328Z" opacity="0.15"></path>
      <path d="M44.051,49.175c1.1,6.39,4.582,12.442,10.215,14.511a40.512,40.512,0,0,0,19.355,2.633C91.112,64.9,87.688,25.129,79.391,17.4s-32.67-2.862-35.646,10.056C42.206,34.133,43,43.093,44.051,49.175Z" fill="#bb6751"></path>
      <g>
        <circle cx="69.076" cy="42.827" r="1.449" fill="#0f1011"></circle>
        <circle cx="80.508" cy="41.9" r="1.449" fill="#0f1011"></circle>
        <path d="M83.022,38.815h-.009l-3.838-.052a.681.681,0,0,1,.009-1.361h.009l3.838.051a.681.681,0,0,1-.009,1.362Z" fill="#0f1011"></path>
        <path d="M65.95,40.2a.681.681,0,0,1-.157-1.343l3.785-.907a.681.681,0,1,1,.317,1.324l-3.785.907A.673.673,0,0,1,65.95,40.2Z" fill="#0f1011"></path>
        <path d="M69.736,54.24s5.348.569,9.1-.738c0,0-.033,3.523-4.265,3.866S69.736,54.24,69.736,54.24Z" fill="#f8fcff"></path>
      </g>
      <path d="M55.834,32.634A125.362,125.362,0,0,1,50.968,77.04S38.775,56.015,36.889,38.51C35.121,22.1,47.222,12.422,55.393,10.6,86.444,3.689,88.679,26.371,88.679,26.371,83.022,38.134,52.473,38.082,52.473,38.082" fill="#0f1011"></path>
      <path d="M61.754,49.066a6.143,6.143,0,0,1-12.245.993,6.041,6.041,0,0,1,5.626-6.619C59.513,43.3,61.48,45.685,61.754,49.066Z" fill="#bb6751"></path>
      <g opacity="0.15">
        <path d="M75.5,50.87a.5.5,0,0,1-.146-.978l2.947-.9L76.245,44.4a.5.5,0,0,1,.913-.409l2.289,5.11a.5.5,0,0,1-.31.682l-3.489,1.068A.5.5,0,0,1,75.5,50.87Z"></path>
      </g>
    </g>
    <g>
      <path d="M103.315,218.375c19.95,87.888,38.015,176.366,52.271,265.367l-20.04,4.122c-22.031-87.4-40.358-175.826-56.718-264.452Z" fill="#bb6751"></path>
      <path d="M62.077,223.819c1.832,87.312,1.7,174.821-2.271,262.074H39.347c-3.969-87.252-4.1-174.763-2.27-262.074Z" fill="#bb6751"></path>
      <path d="M86.276,493.96a4.109,4.109,0,0,0,4.076-4.428h0A4.107,4.107,0,0,0,87.693,486l-24.442-8.186a3.459,3.459,0,0,0-2.873.319,19.108,19.108,0,0,1-11.467,3.4,17.035,17.035,0,0,1-8.821-3.222,1.546,1.546,0,0,0-2.527,1.2v11.952a2.677,2.677,0,0,0,2.689,2.678Z" fill="#c1d8ed"></path>
      <path d="M180.009,493.96a4.108,4.108,0,0,0,4.076-4.428h0A4.108,4.108,0,0,0,181.427,486l-24.443-8.186a3.457,3.457,0,0,0-2.872.319,19.112,19.112,0,0,1-11.468,3.4,17.031,17.031,0,0,1-8.82-3.222,1.547,1.547,0,0,0-2.528,1.2v11.952a2.678,2.678,0,0,0,2.689,2.678Z" fill="#c1d8ed"></path>
      <path d="M24.4,186.123s-11.36,50.871-11.36,93.654S0,388.821,0,388.821s36.967-5.98,62.044,0C105.253,399.123,144,376.689,144,376.689L100.48,190.819Z" fill="#262626"></path>
    </g>
    <g>
      <g>
        <path d="M221.05,138.491s8.209-3.989,14.374-2.458,3.277,4.184-1.21,5.128-14.343,2.479-14.343,2.479" fill="#bb6751"></path>
        <path d="M225.845,138.3s15.218-1.6,15.376,2.062c0,0,.667,11.295-1.4,13.042-3.121,2.636-18.579.572-18.579.572Z" fill="#bb6751"></path>
      </g>
      <g>
        <path d="M185.615,156.968H126.136a10.5,10.5,0,0,1-8.841-4.836L79.713,93.464,97.4,82.137l34.484,53.831h53.735Z" fill="#EE820F"></path>
        <path d="M105.3,192.757c-4.19,9.63-86.52,13.63-87.62-3.31-.7-10.781,8.8-20.19,8.8-41.2S7.152,100.406,22.9,84.656c4.57-4.569,12.46-7.519,22.08-7.529.72,5.609,34.78,5.63,35.04.13,1.3.02,2.31.039,2.94.07,33.18,1.43,18.6,39.19,18.28,66.93C100.852,176.717,109.622,182.837,105.3,192.757Z" fill="#EE820F"></path>
        <path d="M80.022,77.257c-.26,5.5-3.25,13.589-12.48,14.2-12.3.81-21.84-8.721-22.56-14.33h.03C57.122,77.127,72.962,77.147,80.022,77.257Z" fill="#bb6751"></path>
      </g>
      <g>
        <g>
          <circle cx="176.882" cy="146.468" r="60" fill="#EEC9A4"></circle>
          <g opacity="0.29">
            <circle cx="176.882" cy="146.468" r="38.896" fill="#fff"></circle>
          </g>
        </g>
        <path d="M164.151,160.362l3.628-5.627c2.876,2.2,5.391,3.328,8.067,3.328,3.206,0,4.617-1.33,4.617-3.905,0-5.821-14.934-5.716-14.934-15.925,0-6.563,4.546-10.743,11.715-10.743a14.03,14.03,0,0,1,10.77,4.8l-4.162,4.767c-2.056-1.87-3.8-2.855-6.162-2.855-2.722,0-4.2,1.1-4.2,3.639,0,5.4,14.934,4.924,14.934,15.738,0,6.5-4.3,11.2-12.58,11.2A18.827,18.827,0,0,1,164.151,160.362Zm9.95-38.417h5.519v8.148H174.1Zm0,39.433h5.519v8.94H174.1Z" fill="#fff"></path>
      </g>
      <path d="M239.816,153.412a3.45,3.45,0,0,1-.929.528c-1.794.37-6.315-.712-7.04-1.966-1.18-2.041-.448-9.415.593-12.091.977-2.5,5.843-1.453,6.482-1.334a.378.378,0,0,0,.061.016c1.327.364,2.2.932,2.237,1.805C241.22,140.37,241.89,151.66,239.816,153.412Z" fill="#bb6751"></path>
      <g>
        <path d="M107.336,160.229s2.409-13.154,11.715-10.865c5.871,1.445,22.934-1.133,23.193,6.406.225,6.542-15.8,8.286-21.1,7.741C116.387,163.022,107.336,160.229,107.336,160.229Z" fill="#bb6751"></path>
        <path d="M115.643,149.219s13.843-2.042,16.935-.727c2.738,1.163-4,4.8-4,4.8Z" fill="#bb6751"></path>
      </g>
      <path d="M120.071,167.534l-61.88-1.888a10.9,10.9,0,0,1-9.322-5.833L18.317,101.558l19.31-10.127,27.594,52.615,55.515,1.694Z" fill="#EE820F"></path>
    </g>
  </g>
  <g>
    <g>
      <path d="M470.941,485.469l20.854-2.48c-.94-7.893-2-17.374-2.073-18.929,0,.1,0,.182,0,.245h-21C468.726,464.935,468.726,466.851,470.941,485.469Z" fill="#bb6751"></path>
      <path d="M554.617,487.979l21-.068s-.07-21.685-.07-23.606h-21C554.547,466.232,554.617,487.979,554.617,487.979Z" fill="#bb6751"></path>
      <path d="M463.194,478.207c1.737-44.008,1.843-90.231,2.387-134.356C472.8,296.257,476.6,244.058,485.515,196.8l.267.078.782-5.329,76.076-4.7,2.677,49.7c3.829,66.58,11.233,173.615,15.712,241.088L544.16,480.76c-6.585-66.359-16.322-172.074-22.272-237.478-6.53,33.326-13.687,70.856-19.485,104.578-1.269,43.078-2.33,87.969-2.215,130.978Z" fill="#262626"></path>
      <path d="M529.088,496.1a4.107,4.107,0,0,1-4.076-4.427h0a4.107,4.107,0,0,1,2.659-3.529l24.442-8.187a3.461,3.461,0,0,1,2.872.32,19.112,19.112,0,0,0,11.468,3.4,17.038,17.038,0,0,0,8.821-3.222,1.546,1.546,0,0,1,2.527,1.2V493.61a2.678,2.678,0,0,1-2.689,2.678Z" fill="#c1d8ed"></path>
      <path d="M445.355,496.1a4.108,4.108,0,0,1-4.077-4.427h0a4.11,4.11,0,0,1,2.659-3.529l24.443-8.187a3.461,3.461,0,0,1,2.872.32,19.112,19.112,0,0,0,11.468,3.4,17.035,17.035,0,0,0,8.82-3.222,1.546,1.546,0,0,1,2.527,1.2V493.61a2.678,2.678,0,0,1-2.688,2.678Z" fill="#c1d8ed"></path>
    </g>
    <g>
      <path d="M533.416,259.434V324.39a9.867,9.867,0,0,0,9.866,9.867H645.577a9.867,9.867,0,0,0,9.866-9.867V259.434a9.866,9.866,0,0,0-9.866-9.866H618.54v-6.855a9.234,9.234,0,0,0-9.223-9.223H579.541a9.234,9.234,0,0,0-9.223,9.223v6.855H543.282A9.866,9.866,0,0,0,533.416,259.434Zm79.124-9.866H576.318v-6.855a3.227,3.227,0,0,1,3.223-3.223h29.776a3.227,3.227,0,0,1,3.223,3.223Z" fill="#EEC9A4"></path>
      <g>
        <path d="M395.4,165.516c-2.9.679-12.961,1.42-13.076,4.046-.07,1.575,7.568,1.626,7.568,1.626" fill="#bb6751"></path>
        <ellipse cx="387.947" cy="177.229" rx="22.304" ry="7.813" transform="translate(-30.196 93.147) rotate(-13.183)" fill="#bb6751"></ellipse>
      </g>
      <g>
        <path d="M584.98,220.892c0,2.98-1.574,12.943.957,13.655,1.517.426,3.31-7,3.31-7" fill="#bb6751"></path>
        <path d="M596.927,219.328s8.559,9.222,2.741,20.162c-.807,1.517-8.672,2.408-8.672.549,0-7.8-.606-13.918-5.743-12.048V215.427" fill="#bb6751"></path>
      </g>
      <path d="M447.6,143.356l37.238-55.647.22.147c3.2-4.881,8.695-8,17.774-8.388.629-.03,1.639-.05,2.94-.07.259,5.5,34.319,5.48,35.04-.13,9.619.01,17.509,2.96,22.08,7.53a20.147,20.147,0,0,1,4.772,7.467l.121-.054,24.172,54.424a10.9,10.9,0,0,1,.841,2.971l9.391,69.829-21.609,2.906L571.4,156.059l-9.525-21.446a62.311,62.311,0,0,0-2.56,15.775c0,21.01,9.5,30.42,8.8,41.2-1.1,16.94-83.43,12.94-87.619,3.31-4.321-9.92,4.449-16.04,4.059-48.5a165,165,0,0,0-1.354-17.031l-19.473,29.1a10.914,10.914,0,0,1-5.375,4.2l-60.957,21.9-7.371-20.522Z" fill="#EE820F"></path>
      <path d="M505.775,79.4c.259,5.5,3.25,13.59,12.48,14.2,12.3.81,21.839-8.72,22.56-14.33h-.031C528.675,79.268,512.835,79.288,505.775,79.4Z" fill="#bb6751"></path>
    </g>
    <g>
      <path d="M532.333,66.29a65.1,65.1,0,0,1,.239-6.76c-2.684-.5-13.111-2.428-15.979-2.96.554,1.961.052,16.79-3,20.91a11.831,11.831,0,0,1-3.12,3.82H535.6C534.042,78.62,532.442,74,532.333,66.29Z" fill="#bb6751"></path>
      <path d="M513.58,77.494,526.852,67.34l-10.424-.108A28.735,28.735,0,0,1,513.58,77.494Z" opacity="0.15"></path>
      <path d="M541.635,51.366C539.6,66.39,525.107,69.605,512.05,68.483c-17.49-1.434-14.03-41.2-5.727-48.926S539,16.724,541.961,29.644C543.494,36.326,542.688,45.285,541.635,51.366Z" fill="#bb6751"></path>
      <path d="M494.09,15.865c-.011-5.3,6.614-13.929,24.128-1.99,9.606.175,15.177.686,22.244,5.959h0c15.531,10.605,2.034,43.876-7.309,46.227-.956.569-1.188.106-1.52-.957A81.127,81.127,0,0,1,529.4,53.135c-.571-4.2-4.345-6.87-3.889-11.9.16-1.758,2.991-8.2-5.772-8.273C500.611,34.239,491.947,31.283,494.09,15.865Z" fill="#0f1011"></path>
      <path d="M524.154,48.542c-.767,7.933,11.71,8.957,12.244,1C537.317,41.352,523.962,40.771,524.154,48.542Z" fill="#bb6751"></path>
      <path d="M526.852,29.056l4.524,1.656c-1.38,3.792,1.055,38.83-11.69,39.318-17.106,2.118-20.175-3.048-19.535-16.55C526.353,56.452,524.391,52.7,526.852,29.056Z" fill="#0f1011"></path>
      <g>
        <path d="M515.173,44.878a1.449,1.449,0,0,0,2.887.236A1.449,1.449,0,0,0,515.173,44.878Z" fill="#0f1011"></path>
        <path d="M503.741,43.94a1.449,1.449,0,0,0,2.888.237A1.449,1.449,0,0,0,503.741,43.94Z" fill="#0f1011"></path>
        <path d="M502.675,40.971s3.842-.049,3.846-.048a.681.681,0,0,0-.017-1.361l-3.838.048A.681.681,0,0,0,502.675,40.971Z" fill="#0f1011"></path>
        <path d="M519.744,42.37c2.756-1.338-3.02-1.985-3.626-2.253a.681.681,0,0,0-.318,1.324C515.989,41.465,519.548,42.383,519.744,42.37Z" fill="#0f1011"></path>
      </g>
      <g opacity="0.15">
        <path d="M510.184,53.033c2.056-.926-2.4-1.631-2.8-1.883l2.061-4.591c-.38-3.118-2.955,4.556-3.2,4.7C505.774,52.272,509.736,52.727,510.184,53.033Z"></path>
      </g>
      <path d="M515.946,56.408s-5.349.564-9.1-.746C506.691,60.26,515.363,60.954,515.946,56.408Z" fill="#f8fcff"></path>
    </g>
  </g>
  <g>
    <circle cx="427.733" cy="54.396" r="32.098" fill="#8ddbe0"></circle>
    <path d="M423,67.557a2.165,2.165,0,0,1-1.484-.589l-10.491-9.9a2.162,2.162,0,1,1,2.968-3.145l8.888,8.387,18.482-20.367a2.162,2.162,0,0,1,3.2,2.906l-19.964,22a2.168,2.168,0,0,1-1.518.708Z" fill="#fff"></path>
  </g>
</svg>