<svg id="Layer_1" data-name="Layer 1" xmlns="http://www.w3.org/2000/svg" viewBox="0 0 722.206 507.854">
  <g>
    <g>
      <rect x="103.704" y="1" width="594.118" height="447.981" rx="24.26" transform="translate(801.526 449.981) rotate(-180)" fill="#fff"></rect>
      <path d="M673.562,449.98h-545.6a25.288,25.288,0,0,1-25.26-25.259V25.26A25.288,25.288,0,0,1,127.964,0h545.6a25.288,25.288,0,0,1,25.26,25.26V424.721A25.288,25.288,0,0,1,673.562,449.98ZM127.964,2A23.287,23.287,0,0,0,104.7,25.26V424.721a23.286,23.286,0,0,0,23.26,23.259h545.6a23.286,23.286,0,0,0,23.26-23.259V25.26A23.287,23.287,0,0,0,673.562,2Z" fill="#292a2e"></path>
    </g>
    <g opacity="0.14">
      <path d="M283.029,83.856a60.385,60.385,0,1,0-43.823,77.734,60.361,60.361,0,0,1,43.823-77.734Z" fill="#EE820F"></path>
      <path d="M296.536,82.32a60.48,60.48,0,0,0-13.507,1.536,60.358,60.358,0,0,1-43.823,77.734,60.366,60.366,0,1,0,57.33-79.27Z" fill="#EE820F"></path>
    </g>
    <g opacity="0.22">
      <path d="M225.7,164.125a61.366,61.366,0,1,1,61.365-61.365A61.434,61.434,0,0,1,225.7,164.125Zm0-120.731a59.366,59.366,0,1,0,59.365,59.366A59.434,59.434,0,0,0,225.7,43.394Z" fill="#EE820F"></path>
      <path d="M296.535,204.052A61.366,61.366,0,1,1,357.9,142.686,61.434,61.434,0,0,1,296.535,204.052Zm0-120.732A59.366,59.366,0,1,0,355.9,142.686,59.432,59.432,0,0,0,296.535,83.32Z" fill="#EE820F"></path>
    </g>
    <path d="M721.206,507.854H27.155a1,1,0,0,1,0-2H721.206a1,1,0,0,1,0,2Z" fill="#292a2e"></path>
    <g>
      <g id="b_4_ha">
        <path d="M386.1,228.4l-1-17.667a4.956,4.956,0,0,0-4.45-5.1,4.774,4.774,0,0,0-5.094,4.7l-.8,49.328" fill="#bb6751"></path>
        <g>
          <polygon points="410.77 193.228 413.139 201.831 368.074 214.85 365.705 206.246 410.77 193.228" fill="#EEC9A4"></polygon>
          <polygon points="410.77 193.228 413.139 201.831 368.074 214.85 365.705 206.246 410.77 193.228" fill="#fff" opacity="0.5"></polygon>
          <polygon points="358.579 208.231 360.948 216.835 368.074 214.85 365.705 206.246 358.579 208.231" fill="#262626"></polygon>
          <path d="M410.77,193.228s2.629.639,4.982,1.219c1.866.46,3.558.883,3.626.92a31.883,31.883,0,0,1-2.6,2.8c-1.711,1.747-3.635,3.668-3.635,3.668Z" fill="#EE820F"></path>
          <path d="M410.77,193.228s2.629.639,4.982,1.219c1.866.46,3.558.883,3.626.92a31.883,31.883,0,0,1-2.6,2.8c-1.711,1.747-3.635,3.668-3.635,3.668Z" fill="#fff" opacity="0.9"></path>
          <path d="M415.752,194.447c1.866.46,3.558.883,3.626.92a31.883,31.883,0,0,1-2.6,2.8Z" fill="#EEC9A4"></path>
        </g>
        <path d="M374.752,259.659l15.406.646a24.046,24.046,0,0,0,22.9-14.081l8.935-19.769a4.891,4.891,0,0,0-1.477-6.008,4.774,4.774,0,0,0-5.658.059.454.454,0,0,0-.162-.164.442.442,0,0,0-.418.009l1.655-3.644a4.957,4.957,0,0,0-2.03-6.454,4.774,4.774,0,0,0-5.994,1.334.427.427,0,0,0-.079-.128l.68-1.5a4.892,4.892,0,0,0-1.477-6.009,4.779,4.779,0,0,0-6.56.938.42.42,0,0,0-.095-.026L385.37,215.809" fill="#bb6751"></path>
        <path d="M408.577,194.6a4.977,4.977,0,0,1-1.869,2.812,38.8,38.8,0,0,0-6.686,7.608c-2.88,4.012-5.226,10.5-5.887,12.665a4.5,4.5,0,0,1-8.607-2.631c.115-.376,2.859-9.26,7.183-15.283,2.032-2.829,7.021-8.493,8.92-9.791a4.5,4.5,0,0,1,6.946,4.62Z" fill="#bb6751"></path>
        <path id="b_4_ha_sh" d="M400.76,205.358a.476.476,0,0,1-.046.149l-5.261,10.325a.449.449,0,1,1-.8-.408l5.261-10.324a.449.449,0,0,1,.845.258Z" fill="#0a0a0a" opacity="0.2"></path>
        <path id="b_4_ha_sh-2" data-name="b_4_ha_sh" d="M407.945,211.79a.433.433,0,0,1-.044.145l-4.072,8.148a.448.448,0,0,1-.8-.4l4.072-8.147a.448.448,0,0,1,.846.255Z" fill="#0a0a0a" opacity="0.2"></path>
        <path id="b_4_ha_sh-3" data-name="b_4_ha_sh" d="M414.931,220.794a.474.474,0,0,1-.049.155l-2.013,3.8a.449.449,0,0,1-.793-.42l2.013-3.8a.449.449,0,0,1,.842.265Z" fill="#0a0a0a" opacity="0.2"></path>
      </g>
      <path d="M367.079,227.7,329.391,335.8l-61.252-80.1-57.312,47.893L316.711,416.66a32.372,32.372,0,0,0,55.132-11.28L423.452,246.2Z" fill="#EE820F"></path>
      <path d="M32.6,459.769A32.6,32.6,0,0,1,2.013,415.886c1.845-5,45.275-122.786,53.509-144.008l60.793,23.585c-4.629,11.933-21.4,57.162-34.88,93.6l22.388-2.434,7.048,64.826-74.743,8.126A32.69,32.69,0,0,1,32.6,459.769Z" fill="#EE820F"></path>
      <polygon points="71.672 456.439 61.73 505.925 254.832 505.925 243.71 455.498 71.672 456.439" fill="#262626"></polygon>
      <path id="b_1_b" d="M113.424,235.285c-16.134,1.2-32.585,6.44-44.7,17.163-18.271,16.174-16.645,26.283-7.524,71.071,7.848,38.538,4.734,55.378,9.984,126.492.155,2.095.486,6.428.486,6.428l172.586-.286s16.17-94.349,25.1-137.866c6.79-33.083,24.623-73.245-50.57-81.339C218.588,236.927,158.281,231.957,113.424,235.285Z" fill="#EE820F"></path>
      <g>
        <path id="h_3_sk" d="M218.786,236.951c-.2-.026-5.678,20.589-48.428,17.38-29.6-2.217-36.812-22.362-37.49-22.362,3.191-.678,8.372-1.382,9.79-2.139,4.66-2.5,8.055-5.552,9.763-12.093,1.337-5.116,2.018-24.811,2.018-34.691l45.541,10.233c-.635,11.146-5.078,36.986,10.494,41.559C213.065,235.6,215.856,236.29,218.786,236.951Z" fill="#bb6751"></path>
        <path d="M198.4,215.193c-17.953,1.416-41.016-6.164-45.4-30.117l-3.953-21.613c-4.38-23.953,4.649-45.672,27.2-49.8h0c22.553-4.125,42.962,12.21,47.343,36.163l1.75,9.568C227.029,168.589,230.437,212.665,198.4,215.193Z" fill="#bb6751"></path>
        <path d="M215.051,193.2c-3.223-16.193-4.7-27-4.529-38.393,4.539-7.962,3.346-17.1,2.314-21.049,4.449,2.427,6.309,2.692,10.5,2.692,0,0-7.507-30.127-33.022-38.234-4.691-1.826-16.67-4.133-32.576-1.951-13.529,1.855-46.877,11.971-51.641,49.514h0v.021c-.158,1.245-3.36,35.836-9.743,52.433-8.582,22.311-20.63,29.243-20.324,54.985.393,33.112,61.266,37.519,97.982,35.042s57.212-14.549,57.478-38.412C231.781,223.114,221.5,225.6,215.051,193.2Z" fill="#0a0a0a"></path>
        <path d="M215.061,179.627c-6.853,1.254-13.75-5.062-15-11.916s3.611-11.65,10.465-12.9Z" fill="#bb6751"></path>
      </g>
      <path d="M261.371,361.814a.445.445,0,0,1-.081-.008.435.435,0,0,1-.347-.508l7.237-45.332a.435.435,0,0,1,.854.161L261.8,361.46A.434.434,0,0,1,261.371,361.814Z" fill="#0c0c0c"></path>
      <path d="M71.672,456.874a.434.434,0,0,1-.434-.418L65.83,316.064a.434.434,0,0,1,.417-.452.456.456,0,0,1,.451.418l5.409,140.393a.435.435,0,0,1-.418.451Z" fill="#0c0c0c"></path>
    </g>
    <g>
      <path d="M445.306,274.213a1,1,0,0,1-.762-.351l-8.609-10.118a1,1,0,1,1,1.524-1.3l7.383,8.677,9.673-35.261a1,1,0,0,1,.964-.736h.006l91.566.5a1,1,0,0,1-.006,2h-.006l-90.8-.494-9.971,36.347a1,1,0,0,1-.964.735Z" fill="#EE820F" opacity="0.21"></path>
      <g opacity="0.2">
        <path d="M466.938,260a39.753,39.753,0,0,1,3.9-7.136c.518-.751,1.223-2.089,2.309-1.66a9.684,9.684,0,0,1,2.658,2.3,23.248,23.248,0,0,0,4.985,4.21,8.519,8.519,0,0,0,6.228.808,28.273,28.273,0,0,0,6.163-2.848,14.449,14.449,0,0,1,7.194-1.828,38.85,38.85,0,0,1,8.042,1.315c2.728.636,5.467,1.193,8.242,1.584a84.963,84.963,0,0,0,18.951.555c1.41-.117,1.423-2.334,0-2.215A83.8,83.8,0,0,1,518,254.713a87.586,87.586,0,0,1-8.665-1.609,47.731,47.731,0,0,0-8.3-1.447,16.006,16.006,0,0,0-7.687,1.46c-2.065.96-3.966,2.317-6.137,3.041a6.665,6.665,0,0,1-6.182-.9,46.827,46.827,0,0,1-4.927-4.546c-.993-.915-2.127-1.906-3.567-1.846a4.155,4.155,0,0,0-2.981,1.986,37.942,37.942,0,0,0-4.53,8.024,1.147,1.147,0,0,0,.4,1.516,1.115,1.115,0,0,0,1.516-.4Z" fill="#EE820F"></path>
      </g>
    </g>
    <g>
      <g>
        <rect x="583.127" y="473.259" width="111.51" height="32" transform="translate(1277.763 978.518) rotate(180)" fill="#EE820F"></rect>
        <rect x="583.127" y="473.259" width="111.51" height="32" transform="translate(1277.763 978.518) rotate(180)" fill="#fff" opacity="0.69"></rect>
        <rect x="598.101" y="473.259" width="14.612" height="32" transform="translate(1210.814 978.518) rotate(180)" fill="#fff" opacity="0.65"></rect>
        <rect x="619.634" y="479.342" width="60.754" height="18.963" transform="translate(1300.022 977.646) rotate(180)" fill="#fff" opacity="0.65"></rect>
      </g>
      <g>
        <rect x="556.538" y="441.29" width="109.978" height="32" transform="translate(1223.055 914.579) rotate(-180)" fill="#EE820F"></rect>
        <rect x="556.538" y="441.29" width="109.978" height="32" transform="translate(1223.055 914.579) rotate(-180)" fill="#fff" opacity="0.6"></rect>
        <rect x="570.591" y="447.372" width="59.919" height="18.963" transform="translate(1201.102 913.707) rotate(-180)" fill="#fff" opacity="0.42"></rect>
        <rect x="637.337" y="441.29" width="14.411" height="32" transform="translate(1289.084 914.579) rotate(-180)" fill="#fff" opacity="0.42"></rect>
      </g>
      <g>
        <rect x="471.144" y="436.479" width="111.51" height="32" transform="translate(1213.191 345.885) rotate(130.517)" fill="#EE820F"></rect>
        <rect x="471.144" y="436.479" width="111.51" height="32" transform="translate(1213.191 345.885) rotate(130.517)" fill="#fff" opacity="0.78"></rect>
        <rect x="497.846" y="461.926" width="14.612" height="32" transform="translate(1196.661 404.398) rotate(130.517)" fill="#EE820F" opacity="0.2"></rect>
        <rect x="503.421" y="434.253" width="60.754" height="18.963" transform="translate(1217.925 326.215) rotate(130.517)" fill="#EE820F" opacity="0.2"></rect>
      </g>
    </g>
    <path d="M601.831,391.64,538.11,281.271a.8.8,0,0,0-.123-.153.97.97,0,0,0-1.487,0,.8.8,0,0,0-.123.153L472.656,391.64a1,1,0,0,0,.866,1.5H600.965a1,1,0,0,0,.866-1.5Zm-65.588-.5H498.9a16.654,16.654,0,0,0-13.079-18.3L536.243,285.5Zm2-105.637,50.339,87.189a1.011,1.011,0,0,0-.316-.012,16.692,16.692,0,0,0-13.817,18.46H538.243ZM484.77,374.658a14.734,14.734,0,0,1,12.115,16.482H475.254Zm91.692,16.482A14.735,14.735,0,0,1,588.6,374.653a.987.987,0,0,0,.751-.631l9.884,17.118Z" fill="#EE820F" opacity="0.21"></path>
    <g>
      <g opacity="0.2">
        <path d="M654.863,63.614H419.623a1,1,0,0,1,0-2h235.24a1,1,0,0,1,0,2Z" fill="#EE820F"></path>
      </g>
      <g opacity="0.2">
        <path d="M408.669,198.367a1,1,0,0,1-1-1V71.938a1,1,0,1,1,2,0V197.367A1,1,0,0,1,408.669,198.367Z" fill="#EE820F"></path>
      </g>
      <path d="M655.863,173.969V151.1a1,1,0,0,0,0-.19V124.752a1,1,0,0,0,0-.19v-25.5a1,1,0,0,0,0-.19V72.178a1.016,1.016,0,0,0,0-.191v-.049a1,1,0,0,0-1-1H419.623a1,1,0,0,0-1,1V197.367c0,.025.013.045.014.069a.874.874,0,0,0,.253.6c.01.01.013.025.023.035h0a1.008,1.008,0,0,0,.327.218.991.991,0,0,0,.382.077H527.946a.879.879,0,0,0,.958,0h27.608a.879.879,0,0,0,.958,0h24.685a.879.879,0,0,0,.958,0h24.4a.879.879,0,0,0,.958,0h22.78a.881.881,0,0,0,.959,0h22.654a1,1,0,0,0,1-1v-23.2A.958.958,0,0,0,655.863,173.969Zm-45.3,22.4,43.3-42.941v20.25l-22.412,22.691Zm-25.387,0,68.688-69.261v23.5l-46.141,45.757Zm-25.641,0,94.329-94.959v22.858l-71.505,72.1Zm-28.538,0L653.863,74.5V98.57l-97.148,97.8Zm-27.773,0L628.369,72.938H652.6L528.156,196.367Zm-27.7,0L600.666,72.938H625.52L500.374,196.367Zm-26.393,0L574.273,72.938h23.545L472.672,196.367Zm-27.075,0L546.492,72.938h24.933L446.279,196.367ZM420.623,95.791l22.571-22.853h20.893l-43.464,43.1Zm0,23.066,46.3-45.919h22.545L420.623,142.36Zm0,26.343,71.665-72.262h22.824l-94.489,95.12Zm0,25.7,97.308-97.958h25.721L420.623,194.967Zm19.759-97.958-19.759,20v-20ZM634.264,196.367l19.6-19.844v19.844Z" fill="#EEC9A4"></path>
    </g>
  </g>
</svg>